<?xml version="1.0" encoding="UTF-8" standalone="no"?>
<!-- Generator: Adobe Illustrator 21.1.0, SVG Export Plug-In . SVG Version: 6.00 Build 0)  -->

<svg
   version="1.1"
   id="Layer_1"
   x="0px"
   y="0px"
   viewBox="0 0 1003.2714 324.22012"
   xml:space="preserve"
   sodipodi:docname="playground_for_dark_bg.svg"
   width="1003.2714"
   height="324.22012"
   inkscape:version="1.2.2 (732a01da63, 2022-12-09)"
   xmlns:inkscape="http://www.inkscape.org/namespaces/inkscape"
   xmlns:sodipodi="http://sodipodi.sourceforge.net/DTD/sodipodi-0.dtd"
   xmlns="http://www.w3.org/2000/svg"
   xmlns:svg="http://www.w3.org/2000/svg"><defs
   id="defs57"><rect
   x="432.72045"
   y="233.2508"
   width="580.00039"
   height="123.33184"
   id="rect1" />
	
	
	
	
	
	
	
	
	
	
	
	
	
	
	
	
	
	
	
	
	
	
	
</defs><sodipodi:namedview
   id="namedview55"
   pagecolor="#060606"
   bordercolor="#666666"
   borderopacity="1.0"
   inkscape:pageshadow="2"
   inkscape:pageopacity="0.0"
   inkscape:pagecheckerboard="0"
   showgrid="false"
   fit-margin-top="0"
   fit-margin-left="0"
   fit-margin-right="0"
   fit-margin-bottom="0"
   inkscape:zoom="0.87914368"
   inkscape:cx="301.42968"
   inkscape:cy="89.860169"
   inkscape:window-width="2560"
   inkscape:window-height="1369"
   inkscape:window-x="-8"
   inkscape:window-y="564"
   inkscape:window-maximized="1"
   inkscape:current-layer="Layer_1"
   inkscape:showpageshadow="2"
   inkscape:deskcolor="#d1d1d1" />
<style
   type="text/css"
   id="style2">
	.st0{fill:#31B8A3;}
	.st1{fill:#333736;}
	.st2{fill:#32B8A4;}
	.st3{fill:#35B9A5;}
	.st4{fill:#3BBBA7;}
	.st5{fill:#FDFEFE;}
	.st6{fill:none;enable-background:new    ;}
</style>
<g
   id="g12004"
   transform="translate(-2.1801995,-1.7798799)"><path
     class="st0"
     d="m 148,326 c -0.1,-6.7 -2.5,-12.9 -3.8,-19.4 -0.4,-1.8 -1.6,-2.3 -3.2,-2.5 -3.8,-0.6 -7.7,-0.8 -11.2,-2.2 -5.4,-2.2 -8.5,-0.3 -11.4,4.2 -2.5,3.9 -4.6,9.4 -8.7,10.5 -4.1,1.1 -8.4,-3.1 -12.6,-5 -4.9,-2.1 -9.6,-4.5 -14.5,-6.7 -2.4,-1 -3.2,-2.4 -2.4,-5 1.2,-4.1 1.7,-8.5 3,-12.5 1.2,-3.6 0.5,-5.9 -2.7,-7.9 -3.4,-2.1 -6.6,-4.6 -9.4,-7.4 -2.7,-2.6 -5,-2.6 -7.9,-0.7 -0.1,0.1 -0.3,0.2 -0.4,0.2 -5,2.1 -10.1,7.7 -14.5,6.3 -4.4,-1.4 -7.3,-7.8 -10.7,-12 -2.9,-3.5 -5.6,-7.1 -8.5,-10.5 -1.6,-1.9 -1.6,-3.3 0,-5.2 2.7,-3 4.8,-6.4 7.7,-9.2 3.3,-3.2 4,-6.2 1,-9.9 -0.8,-1 -1.6,-2.2 -1.9,-3.5 C 34,217.9 27.7,216 18.6,217 c -8.7,0.9 -8.8,0.2 -10.9,-8.5 -1.6,-6.8 -3,-13.6 -4.9,-20.3 -0.8,-2.8 0,-3.8 2.3,-4.8 4.4,-1.9 8.7,-4.2 13.1,-6.1 2.1,-0.9 3,-2.1 2.9,-4.5 -0.3,-5.2 -0.2,-10.3 0,-15.5 0.1,-2.4 -0.7,-3.6 -2.9,-4.4 -4.5,-1.8 -8.8,-4 -13.2,-5.9 -2.3,-1 -3.3,-2.2 -2.6,-4.9 2.1,-8.5 3.9,-17.1 5.7,-25.7 0.5,-2.5 1.7,-3.6 4.4,-3.5 4.7,0.2 9.3,-0.1 14,0.1 2.8,0.1 4.2,-0.8 5.2,-3.4 1.9,-4.6 4.1,-9.1 6.3,-13.5 1.1,-2.1 1.1,-3.5 -0.6,-5.3 -3.3,-3.6 -6,-7.6 -9.3,-11.1 C 26,77.5 26.2,76.1 28,73.9 33.6,67.1 39.1,60.2 44.5,53.2 c 1.6,-2.1 3,-2.6 5.4,-1.2 4.2,2.3 8.7,4.2 12.9,6.5 2.1,1.1 3.5,1 5.3,-0.6 3.8,-3.3 7.6,-6.5 11.7,-9.3 2.4,-1.7 2.7,-3.5 2,-6 -1.2,-4.5 -2.3,-9 -3.6,-13.5 -0.7,-2.4 -0.1,-4 2.4,-5.1 8.1,-3.8 16.2,-7.7 24.2,-11.7 2,-1 3.7,-1.2 4.9,1.1 0.1,0.1 0.2,0.3 0.3,0.4 3.8,4.4 6.1,11.4 11.2,12.9 4.8,1.4 10.8,-1.9 16.4,-2.9 3.2,-0.5 4.9,-2 5.3,-5.3 0.7,-4.4 1.8,-8.8 2.6,-13.2 0.4,-2.4 1.4,-3.7 4.2,-3.5 4.3,0.3 8.7,0.2 13,0 2.5,-0.1 3.5,0.6 3.5,3.3 -0.1,17.2 -0.1,34.3 0,51.5 0,3.3 -1.7,3.2 -4,3.3 -45.7,1.7 -77.9,24 -95.4,65.8 -24.3,58.3 12,125.8 73.6,139.2 7.2,1.6 14.4,2.4 21.8,2.3 2.6,0 3.9,0.4 3.9,3.5 -0.1,17.2 -0.1,34.3 0,51.5 0,1.4 -0.4,2.6 -1.1,3.7 -5.7,0.1 -11.3,0.1 -17,0.1 z"
     id="path4" /><path
     class="st2"
     d="m 164.2,193.4 c 0,18.8 0,37.7 0,56.5 0,1 0,2 0,3 -0.1,1.4 0.4,3.1 -2,3.2 -2.4,0.1 -2.1,-1.5 -2.1,-3 0,-3.5 0,-7 0,-10.5 0,-12.3 0,-24.7 0,-37 0,-8.4 -4.9,-13.3 -13.2,-13.6 -6.7,-0.2 -7.8,-1.3 -7.8,-7.9 0,-7.2 0.1,-14.3 0,-21.5 0,-2.2 0.5,-3.5 2.4,-4.9 5.5,-4.2 6,-10.6 1.6,-15.2 -4.1,-4.3 -11,-4.1 -15,0.5 -4,4.7 -3.1,11.3 2.5,15 2.1,1.4 2.3,2.9 2.3,5 0,7.2 -0.1,14.3 0,21.5 0.1,9.3 4,13.4 13.2,13.8 6.3,0.3 8,2 8,8.1 0,15.2 -0.1,30.3 0.1,45.5 0,3 -0.4,3.8 -3.8,3.3 -11.9,-1.8 -12,-1.6 -12,-13.4 0,-5 0.1,-10 0,-15 -0.2,-7.1 -4.9,-11.8 -12,-11.8 -11.5,-0.1 -23,-0.1 -34.5,0 -2.7,0 -4.2,-0.8 -5.6,-3.1 -3.5,-6.1 -6.3,-12.4 -8.7,-19 -1,-2.9 -0.7,-4.3 2.8,-4.2 3.5,0.1 6.4,-0.1 8.9,3.6 3.3,4.9 10.2,4.9 14.5,0.7 4.1,-4 4.2,-10.2 0.2,-14.3 -3.9,-4.1 -11.3,-4.3 -14.5,0.5 -3.7,5.4 -8.6,2.9 -13,3.3 -1.6,0.1 -1.9,-1.7 -2.1,-3 -0.7,-5.9 -1.5,-11.9 -1.3,-17.9 0.1,-2.3 1.1,-2.7 3.1,-2.7 11.2,0.1 22.3,0 33.5,0 3.6,0 5.6,2 5.6,5.6 0.1,7.7 0,15.3 0.1,23 0,2.1 -1.3,2.8 -2.6,3.9 -4.9,4.2 -5.3,11.2 -0.9,15.4 4.2,4 10.9,3.6 14.6,-0.8 4.2,-4.9 3.3,-11.3 -2.5,-15 -2.3,-1.5 -2.6,-3 -2.6,-5.3 0.1,-6.8 0.1,-13.7 0,-20.5 -0.1,-7.9 -4.5,-12.4 -12.4,-12.5 -10.3,-0.1 -20.7,-0.1 -31,0 -2.9,0 -4.4,-0.5 -3.7,-3.9 7.5,-36.1 28.5,-60.2 63.3,-72.6 4.7,-1.7 5.8,-0.4 5.3,4.1 -0.3,3 -0.2,6 0,9 0.2,4.5 0.1,8.3 -4.5,11.4 -4.6,3.1 -3.9,10.2 0.2,14.1 4.1,3.9 10.4,3.7 14.3,-0.4 3.8,-4.1 4,-10.9 -0.5,-14.2 -3.1,-2.3 -3.6,-4.7 -3.5,-8 0.1,-5.2 0.1,-10.3 0,-15.5 -0.1,-2.4 0.7,-3.5 3.3,-3.8 12,-1.4 12,-1.5 12,10.7 0,12.5 -0.1,25 0.1,37.5 0,3 -0.7,4 -3.9,4 -11.8,-0.2 -23.7,-0.1 -35.5,0 -2,0 -3.2,-0.6 -4.5,-2.3 -4.2,-5.6 -10.3,-6.2 -15,-1.8 -4.5,4.3 -4.5,10.9 0.1,14.9 4.6,4 11.5,3.2 15.1,-2.3 1.5,-2.3 3.1,-2.6 5.3,-2.6 11.3,0.1 22.7,0.2 34,-0.1 3.6,-0.1 4.4,1.1 4.4,4.5 -0.2,19.4 -0.1,38.7 -0.1,58 z"
     id="path8" /><path
     class="st3"
     d="m 329.4,139 c 14.5,0 29,0 43.5,0 2.3,0 4.3,0.1 6.2,-2 2.4,-2.7 5.7,-2.7 8.4,0.1 2.4,2.5 2.4,5.6 0.4,8.2 -2.3,2.9 -5.7,3 -8.4,0.7 -2.1,-1.8 -4.1,-1.8 -6.4,-1.8 -30.5,0 -61,0 -91.4,0.2 -3.8,0 -5.3,-0.8 -6.4,-4.7 C 263.7,98.2 236.4,73.2 194.7,63.5 189,62.2 183.2,61.8 177.4,61.9 174.3,62 173,61.3 173,57.8 c 0.2,-16.7 0.1,-33.3 0,-50 0,-2.6 0.4,-3.9 3.5,-3.8 37.1,1.3 71.6,10.2 100.7,34.6 9.3,7.8 16.5,17.3 22.1,28.1 1.1,2.2 2.3,4.1 4.8,5.4 3.1,1.5 3.9,4.5 2.4,7.7 -1.5,3.2 -4.4,4.2 -7.6,3.1 -3.2,-1.1 -5,-4.1 -3.7,-7.2 1.4,-3.3 0,-5.4 -1.3,-7.9 C 279.5,41.9 256.7,26.9 229,18.2 c -14.9,-4.7 -30.1,-8 -45.8,-9.1 -3.8,-0.3 -5.6,0.5 -5.2,4.8 0.3,3.8 0.3,7.7 0,11.5 -0.2,3.4 1,4.3 4.4,4.8 27.5,3.8 53.6,11.4 75.7,29.2 15.7,12.6 28,27.9 35.8,46.6 1.7,4.1 3.8,5.3 8,5.1 9.5,-0.3 19,-0.1 28.5,-0.1 3.7,0 7.4,0.4 10.8,-2.3 2.5,-2 5.5,-0.6 7.4,1.9 2,2.6 1.6,5.4 -0.6,7.7 -2.5,2.5 -5.8,2.9 -8,0.4 -2.4,-2.6 -5.1,-2.6 -8.1,-2.6 -12,0 -24,-0.2 -36,0 -2.8,0 -4,-1 -5,-3.5 -15.5,-38.5 -44.1,-62 -83.9,-72 -8.1,-2 -16.2,-4.7 -24.7,-5.2 -3.7,-0.2 -4.3,0.8 -4.2,3.9 0.1,3.8 0.4,7.7 -0.1,11.5 -0.6,4.9 1.8,5.9 5.9,6.1 10.9,0.4 21.4,3 31.4,7.1 32.3,13.3 53.6,36.7 63.8,70.1 1.2,3.8 2.7,5.1 6.8,5 14.5,-0.3 29,-0.1 43.5,-0.1 0,0 0,0 0,0 z"
     id="path10" /><path
     class="st3"
     d="m 314.3,163 c 9.2,0 18.3,0 27.5,0 3.7,0 7.4,0.3 10.8,-2.3 2.6,-1.9 5.9,-1.1 7.8,1.8 1.8,2.6 1.5,5.6 -0.8,7.8 -2.4,2.3 -5.7,2.9 -8.1,0.5 -2.6,-2.5 -5.5,-2.8 -8.7,-2.8 -18.5,0 -37,0.1 -55.5,-0.1 -3.5,0 -4.1,1.5 -4.3,4.4 -2.5,43.4 -33.1,82 -75.1,94.9 -8.8,2.7 -17.7,4.6 -26.9,4.7 -2.3,0 -3.3,0.6 -3.2,3.1 0.1,5.3 0.1,10.7 0,16 0,2.6 1.3,3 3.5,2.7 6.4,-1 12.7,-2.2 19,-3.7 9.2,-2.3 18.4,-4.2 27.1,-8 30.6,-13.3 52.4,-35.1 64.8,-66.3 2.9,-7.2 5.1,-14.6 7.8,-21.8 1,-2.6 2.1,-3.2 4.6,-3.1 4.2,0.2 8.3,0 12.5,-0.1 3.3,0 6.3,0.2 9,-2.7 2.2,-2.4 5.6,-1.7 8,0.9 2.2,2.4 2.3,5.2 0.2,7.7 -2.2,2.5 -5,3.3 -8,1.4 -6.5,-4.1 -13.6,-1.5 -20.3,-1.7 -2.1,-0.1 -2.3,3.7 -2.9,5.8 -6.3,20.6 -15.7,39.4 -30.6,55.1 -17.8,18.9 -39.5,31 -64.9,36.9 -8.9,2 -17.7,4.6 -26.9,5 -2.6,0.1 -2.9,1.6 -2.9,3.6 0.1,4.5 0.2,9 -0.1,13.5 -0.2,3.2 1,4 4,3.8 12.8,-0.7 25.4,-2.7 37.8,-6.1 18.9,-5.2 36.9,-12.1 52.2,-24.9 10,-8.3 17.9,-18.3 24.1,-29.7 0.9,-1.7 1.2,-3.2 0.4,-5.1 -1.4,-3.4 -0.2,-6.5 3.2,-7.9 3.3,-1.3 6.4,-0.3 7.9,3.1 1.5,3.4 0.2,6.2 -3,7.9 -1.4,0.7 -2.4,1.5 -3.2,2.9 -15.4,30.4 -41.5,47.1 -73.1,56.6 -16.6,4.9 -33.5,8.4 -50.9,8.2 -3.6,0 -4.4,-1 -4.4,-4.5 0.1,-16.5 0.1,-33 -0.1,-49.5 0,-3.1 0.7,-4.2 4.1,-4.3 49.5,-1 90.3,-35.2 99.8,-83.6 1.1,-5.4 1.8,-10.8 1.3,-16.3 -0.3,-3 0.7,-4 3.8,-4 11,0.3 21.9,0.2 32.7,0.2 z"
     id="path12" /><path
     class="st3"
     d="m 204.5,167.2 c 7,0 14,0.1 21,-0.1 2.8,-0.1 3.6,1 3.3,3.5 -1.2,10.5 -3.1,20.8 -7.2,30.6 -0.6,1.5 -1.1,2.6 -3.6,1.7 -10.7,-3.8 -21.7,-6.8 -33.3,-6.2 -3,0.2 -4.8,-1.1 -4.7,-4.7 0.3,-7.2 0.2,-14.3 0,-21.5 -0.1,-2.6 0.8,-3.5 3.4,-3.4 7.1,0.2 14.1,0.1 21.1,0.1 z"
     id="path26" /><path
     class="st0"
     d="m 204.3,159.8 c -7,0 -14,-0.1 -20.9,0 -2.3,0 -3.2,-0.6 -3.2,-3.1 0.1,-8 0.1,-15.9 0,-23.9 0,-2.3 1.1,-3 3,-2.6 11.4,2.5 22.6,0 33.6,-2.3 4,-0.9 4.8,0.6 5.9,3.5 3.2,8.3 4.5,17.1 5.9,25.8 0.4,2.6 -1.2,2.6 -3,2.5 -7,0.1 -14.2,0.1 -21.3,0.1 z"
     id="path28" /><path
     class="st4"
     d="m 262.3,168.5 c -0.8,17.2 -6.8,32.2 -16.6,45.9 -1.5,2 -2.8,2.6 -5.1,0.6 -2.8,-2.5 -6.2,-4.3 -9.5,-6.1 -2.3,-1.2 -3,-2.1 -1.9,-4.8 3.9,-9.8 7,-19.7 7.1,-30.5 0,-3.9 1.1,-7.1 6.5,-6.5 5.6,0.6 11.3,0.1 16.9,0.2 1.1,-0.1 2.7,-0.7 2.6,1.2 z"
     id="path32" /><path
     class="st4"
     d="m 250,159.5 c -4.3,0 -9.7,1.6 -12.6,-0.4 -3,-2.1 -1.3,-8 -2.1,-12.1 -1.3,-6.5 -2.9,-12.9 -5.2,-19 -1,-2.6 -0.9,-3.7 1.8,-4.8 4.6,-1.9 9,-4.2 13.3,-6.6 2,-1.2 2.7,-0.7 3.8,1.1 7.8,12.2 12.1,25.6 13.5,39.9 0.2,2.2 -0.8,2.5 -2.5,2.4 -3.3,-0.1 -6.7,0 -10,0 0,-0.3 0,-0.4 0,-0.5 z"
     id="path34" /><path
     class="st4"
     d="m 180.2,247.1 c 0,-14 0,-27.2 0,-40.5 0,-2.1 1,-2.6 2.8,-2.4 10.8,0.9 21.5,2.3 31.8,6.1 1.3,0.5 2.4,1 1.3,2.8 -8.8,14.5 -20.2,25.9 -35.9,34 z"
     id="path36" /><path
     class="st4"
     d="m 217.1,119.4 c -10.5,3.1 -21.1,3.8 -31.8,3.4 -3.2,-0.1 -5.4,-1.1 -5.3,-5.3 0.3,-11.3 0.1,-22.5 0.1,-34.6 16.7,8.5 28.4,20.8 37,36.5 z"
     id="path38" /><path
     class="st0"
     d="m 132.1,250.3 c -15.9,-6.1 -28.5,-15.6 -39.6,-29.3 8,0 15,0 22,0 3.8,0 7.7,-0.1 11.5,0 3.3,0.1 6,1.6 6.1,5.3 0.1,7.8 0,15.5 0,24 z"
     id="path40" /><path
     class="st4"
     d="m 192.5,80 c 15,3.2 28,8.8 39,18.5 3.2,2.8 7,5 9.2,8.9 1,1.7 0.7,2.3 -0.8,2.9 -0.5,0.2 -0.9,0.4 -1.3,0.6 -4,1.9 -8.1,5.5 -12,5.3 -4.3,-0.3 -5.1,-6.5 -7.7,-10 -6.4,-8.5 -13.2,-16.5 -22.1,-22.6 -1.3,-0.9 -2.5,-2.1 -4.3,-3.6 z"
     id="path42" /><path
     class="st4"
     d="m 198.6,245.7 c 9.9,-8.6 18.1,-18.2 24.6,-29.4 0.9,-1.6 1.9,-1.5 3.3,-0.8 1.2,0.7 2.3,1.3 3.4,2 10.3,6.7 10,4.7 1,12.5 -9.3,7.9 -20,13.4 -32.3,15.7 z"
     id="path44" /></g>
<path
   class="st6"
   d=""
   id="path52" />
<g
   aria-label="THINGWEB"
   id="text1888"
   style="font-weight:600;font-size:117.154px;line-height:1.25;font-family:'Josefin Sans';-inkscape-font-specification:'Josefin Sans Semi-Bold';letter-spacing:-8.73px;fill:#f9f9f9;stroke-width:2.92884;fill-opacity:1"
   transform="translate(0,-32.538033)"><path
     d="m 472.05083,119.64174 v 13.12125 h -22.02495 v 72.16687 h -13.58986 v -72.16687 h -21.43918 v -13.12125 z"
     id="path13357"
     style="fill:#f9f9f9;fill-opacity:1" /><path
     d="M 550.01482,204.92986 H 536.3078 v -36.31774 h -41.94113 v 36.31774 h -13.70702 v -85.28812 h 13.70702 v 35.96628 h 41.94113 v -35.96628 h 13.70702 z"
     id="path13359"
     style="fill:#f9f9f9;fill-opacity:1" /><path
     d="m 578.42262,119.64174 v 85.28812 H 564.7156 v -85.28812 z"
     id="path13361"
     style="fill:#f9f9f9;fill-opacity:1" /><path
     d="m 668.45338,119.64174 v 88.33412 h -0.35146 l -61.50585,-59.63139 0.35146,56.58539 h -13.82417 v -88.21697 h 0.70292 l 61.27154,60.33431 -0.2343,-57.40546 z"
     id="path13363"
     style="fill:#f9f9f9;fill-opacity:1" /><path
     d="m 751.10347,197.08054 q -3.51462,3.28031 -12.30117,6.09201 -8.66939,2.69454 -15.93294,2.69454 -13.47271,0 -23.66511,-5.38909 -10.1924,-5.38908 -15.69863,-14.7614 -5.50624,-9.48947 -5.50624,-21.43918 0,-14.40994 5.8577,-24.7195 5.97485,-10.30955 15.93294,-15.58148 10.07525,-5.27193 22.02495,-5.27193 7.38071,0 13.94133,1.75731 6.67778,1.64016 11.7154,4.45185 l -4.45185,12.65264 q -3.51462,-2.10878 -9.37232,-3.63178 -5.74055,-1.523 -10.07525,-1.523 -14.64425,0 -23.07933,8.08363 -8.43509,8.08362 -8.43509,22.61072 0,8.66939 3.86608,15.34717 3.98324,6.56063 11.01248,10.1924 7.14639,3.63177 16.2844,3.63177 4.10039,0 7.84932,-0.70292 3.74893,-0.82008 6.32632,-2.22593 v -14.17563 h -16.0501 v -13.12125 h 29.75711 z"
     id="path13365"
     style="fill:#f9f9f9;fill-opacity:1" /><path
     d="m 828.48176,208.67878 -20.15049,-50.84483 -22.61072,51.07914 -34.09182,-88.80273 h 15.93295 l 19.91618,56.93684 14.17563,-36.31774 -8.20078,-20.6191 h 13.47271 l 21.9078,55.29669 18.27602,-55.29669 h 14.64425 z"
     id="path13367"
     style="fill:#f9f9f9;fill-opacity:1" /><path
     d="m 925.65897,119.64174 v 13.12125 H 882.7806 v 22.72788 h 38.19221 v 13.12125 H 882.7806 v 23.19649 h 44.51852 v 13.12125 h -58.22554 v -85.28812 z"
     id="path13369"
     style="fill:#f9f9f9;fill-opacity:1" /><path
     d="m 977.84914,160.41134 q 7.14639,2.92885 11.12963,8.08362 4.10039,5.15478 4.10039,11.94971 0,12.41832 -8.43509,18.51033 -8.31794,5.97486 -20.61911,5.97486 h -26.59395 v -85.28812 h 23.31364 q 13.35556,0 20.73626,5.50624 7.3807,5.38909 7.3807,15.93295 0,6.67777 -2.92885,11.59824 -2.81169,4.80332 -8.08362,7.73217 z m -26.71112,-4.45186 h 11.83256 q 5.8577,0 8.78655,-3.39746 3.046,-3.39747 3.046,-8.55224 0,-5.6234 -3.63177,-8.43509 -3.51462,-2.8117 -9.84094,-2.8117 h -10.1924 z m 12.30117,36.31774 q 6.91209,0 11.24679,-2.92885 4.3347,-3.046 4.3347,-8.78655 0,-6.092 -4.80332,-8.78655 -4.68616,-2.69454 -11.7154,-2.69454 h -11.36394 v 23.19649 z"
     id="path13371"
     style="fill:#f9f9f9;fill-opacity:1" /></g><g
   aria-label="playground"
   transform="translate(-21.337144,-50.538033)"
   id="text1"
   style="font-size:77.3333px;line-height:1.25;font-family:'Josefin Sans';-inkscape-font-specification:'Josefin Sans';white-space:pre;shape-inside:url(#rect1);display:inline;fill:#f9f9f9"><path
     d="m 459.24602,267.58598 q 4.48534,0 8.12,2.16534 3.63467,2.16533 5.72266,6.10933 2.088,3.86666 2.088,8.97066 0,5.02666 -2.24266,8.89333 -2.24267,3.78933 -6.18667,5.87733 -3.94399,2.088 -8.81599,2.088 -3.48,0 -6.65067,-1.46933 -3.17066,-1.54667 -5.10399,-4.09867 v 20.18399 h -7.192 v -47.94664 h 6.264 l 0.61866,5.41333 q 2.47467,-2.784 5.87733,-4.48533 3.48,-1.70134 7.50133,-1.70134 z m -2.70666,28.30399 q 3.016,0 5.568,-1.392 2.62933,-1.46933 4.17599,-3.944 1.54667,-2.552 1.54667,-5.64533 0,-3.17066 -1.46933,-5.72266 -1.392,-2.552 -3.86667,-4.02133 -2.47466,-1.46934 -5.49066,-1.46934 -4.09867,0 -7.03733,2.32 -2.86133,2.24267 -3.78933,6.10933 v 5.336 q 0.61866,3.712 3.48,6.10933 2.93866,2.32 6.88266,2.32 z"
     id="path1000" /><path
     d="m 492.03537,240.98333 v 59.93331 h -7.19199 v -59.93331 z"
     id="path1002" /><path
     d="m 537.42996,268.90065 v 32.01599 h -7.192 v -5.25867 q -1.70133,2.24267 -4.94933,4.176 -3.248,1.856 -7.34666,1.856 -4.56267,0 -8.27467,-1.93333 -3.63466,-2.01067 -5.79999,-5.8 -2.088,-3.78933 -2.088,-9.048 0,-5.25866 2.16533,-9.12533 2.24267,-3.94399 5.95466,-6.03199 3.78934,-2.16534 8.352,-2.16534 4.09866,0 7.11466,1.77867 3.016,1.77867 4.872,4.64 l 0.54133,-5.104 z M 519.8753,295.7353 q 3.944,0 6.728,-2.16533 2.86133,-2.24266 3.63466,-6.03199 v -6.34134 q -0.928,-3.40266 -3.86666,-5.49066 -2.93867,-2.16533 -6.728,-2.16533 -2.86133,0 -5.336,1.392 -2.39733,1.392 -3.86666,3.944 -1.392,2.47466 -1.392,5.64533 0,3.09333 1.46933,5.64533 1.46933,2.552 3.944,4.09866 2.47466,1.46933 5.41333,1.46933 z"
     id="path1004" /><path
     d="m 580.42726,268.90065 -20.64799,47.40531 h -7.11466 l 7.34666,-16.47199 -14.84799,-30.93332 h 8.12 l 10.36266,22.81332 10.13066,-22.81332 z"
     id="path1006" /><path
     d="m 621.18185,268.90065 v 32.24799 q 0,4.40799 -2.24267,7.96533 -2.24266,3.55733 -6.41866,5.64533 -4.09867,2.08799 -9.66666,2.08799 -4.872,0 -8.42933,-1.62399 -3.48,-1.624 -7.03733,-4.79467 l 4.25333,-4.94933 q 2.62933,2.47467 5.25866,3.712 2.62933,1.31466 5.8,1.31466 5.336,0 8.19733,-2.55199 2.93866,-2.552 3.016,-6.88267 l 0.0773,-6.032 q -1.77866,3.016 -5.25866,4.872 -3.40267,1.77867 -7.888,1.77867 -4.408,0 -8.12,-2.24267 -3.71199,-2.24266 -5.95466,-6.10933 -2.16533,-3.86666 -2.16533,-8.58399 0,-4.872 2.24266,-8.73867 2.32,-3.94399 6.18667,-6.18666 3.86666,-2.24267 8.27466,-2.24267 4.09866,0 7.57866,1.624 3.48,1.624 5.18133,4.176 l 0.54134,-4.48533 z m -18.25066,26.83465 q 4.09866,0 7.11466,-2.24266 3.016,-2.24267 3.944,-5.87733 v -6.34133 q -1.08267,-3.48 -4.09866,-5.568 -3.016,-2.16533 -6.96,-2.16533 -4.71733,0 -7.888,3.09333 -3.17066,3.09333 -3.17066,7.888 0,3.09333 1.46933,5.64533 1.46933,2.552 4.02133,4.09866 2.552,1.46933 5.568,1.46933 z"
     id="path1008" /><path
     d="m 640.66992,276.47931 q 1.23733,-2.62933 3.48,-4.63999 2.31999,-2.01067 4.87199,-3.09334 2.552,-1.08266 4.48533,-1.16 l -0.30933,7.192 q -3.48,-0.15467 -6.34133,1.392 -2.784,1.54667 -4.408,4.33066 -1.54666,2.70667 -1.54666,5.8 v 14.616 h -7.192 v -32.01599 h 6.41866 z"
     id="path1010" /><path
     d="m 658.61122,284.59931 q 0,-4.71733 2.24267,-8.584 2.32,-3.94399 6.34133,-6.18666 4.09866,-2.24267 9.20266,-2.24267 5.104,0 9.048,2.24267 4.02133,2.24267 6.18666,6.10933 2.24267,3.86667 2.24267,8.66133 0,4.79466 -2.24267,8.73866 -2.16533,3.86667 -6.18666,6.10933 -4.02133,2.24267 -9.20266,2.24267 -5.02667,0 -9.048,-2.088 -4.02133,-2.16533 -6.34133,-6.032 -2.24267,-3.86666 -2.24267,-8.97066 z m 7.26933,0.0773 q 0,3.016 1.31467,5.568 1.392,2.552 3.712,4.02133 2.39733,1.46933 5.25866,1.46933 4.48533,0 7.424,-3.17066 2.93866,-3.17067 2.93866,-7.888 0,-4.71733 -2.93866,-7.88799 -2.93867,-3.248 -7.424,-3.248 -2.93866,0 -5.25866,1.54666 -2.32,1.46934 -3.712,4.02134 -1.31467,2.55199 -1.31467,5.56799 z"
     id="path1012" /><path
     d="m 733.31518,268.90065 v 32.01599 h -6.496 l -0.464,-6.10934 q -1.624,3.248 -5.02666,5.336 -3.40267,2.01067 -7.57867,2.01067 -4.40799,0 -7.26933,-2.62933 -2.78399,-2.70667 -2.93866,-6.96 v -23.66399 h 7.192 v 21.11199 q 0.15466,2.70667 1.54666,4.33067 1.46933,1.54666 4.33067,1.62399 2.62933,0 4.79466,-1.54666 2.16533,-1.624 3.40267,-4.408 1.31466,-2.784 1.31466,-6.18666 v -14.92533 z"
     id="path1014" /><path
     d="m 765.71791,267.66332 q 4.48533,0 7.424,2.70666 2.93866,2.62934 3.01599,6.88267 v 23.66399 h -7.26933 v -21.18933 q -0.15466,-2.70666 -1.624,-4.25333 -1.46933,-1.54667 -4.40799,-1.624 -4.25333,0 -7.03733,3.40267 -2.784,3.40266 -2.784,8.66133 v 15.00266 h -7.192 v -32.01599 h 6.496 l 0.464,6.18666 q 1.70133,-3.47999 5.104,-5.41333 3.40266,-2.01066 7.81066,-2.01066 z"
     id="path1016" /><path
     d="m 822.01653,240.98333 v 59.93331 h -7.26933 v -5.02667 q -2.32,2.70667 -5.72267,4.25333 -3.32533,1.54667 -7.34666,1.54667 -4.48533,0 -8.12,-2.16533 -3.63466,-2.16534 -5.72266,-6.032 -2.01067,-3.944 -2.01067,-9.048 0,-5.18133 2.16533,-8.97066 2.16534,-3.86666 5.95467,-5.87733 3.78933,-2.01067 8.58399,-2.01067 3.63467,0 6.96,1.54667 3.40267,1.46933 5.336,4.09866 v -32.24798 z m -18.096,54.51997 q 4.176,0 7.03733,-2.24266 2.93867,-2.24267 3.78934,-6.032 v -6.032 q -0.928,-3.47999 -3.944,-5.64533 -3.016,-2.24266 -6.88267,-2.24266 -2.93866,0 -5.41333,1.46933 -2.47466,1.392 -3.944,3.944 -1.46933,2.47466 -1.46933,5.64533 0,3.09333 1.46933,5.64533 1.46934,2.552 3.944,4.02133 2.47467,1.46933 5.41333,1.46933 z"
     id="path1018" /></g></svg>
