<svg width="1200" height="630" viewBox="0 0 1200 630" fill="none" xmlns="http://www.w3.org/2000/svg">
<g clip-path="url(#clip0_429_3531)">
<rect width="1200" height="630" fill="#141414"/>
<line x1="-0.99939" y1="460" x2="-0.99939" y2="3.05176e-05" stroke="#33B8A4" stroke-width="2"/>
<line x1="45.0004" y1="460" x2="45.0004" y2="3.05176e-05" stroke="#33B8A4" stroke-width="2"/>
<line x1="91.0001" y1="460" x2="91.0001" y2="3.05176e-05" stroke="#33B8A4" stroke-width="2"/>
<line x1="137" y1="460" x2="137" y2="3.05176e-05" stroke="#33B8A4" stroke-width="2"/>
<line x1="183" y1="460" x2="183" y2="3.05176e-05" stroke="#33B8A4" stroke-width="2"/>
<line x1="229" y1="460" x2="229" y2="3.05176e-05" stroke="#33B8A4" stroke-width="2"/>
<line x1="275" y1="460" x2="275" y2="3.05176e-05" stroke="#33B8A4" stroke-width="2"/>
<line x1="321" y1="460" x2="321" y2="3.05176e-05" stroke="#33B8A4" stroke-width="2"/>
<line x1="367" y1="460" x2="367" y2="3.05176e-05" stroke="#33B8A4" stroke-width="2"/>
<line x1="413" y1="460" x2="413" y2="3.05176e-05" stroke="#33B8A4" stroke-width="2"/>
<line x1="459" y1="460" x2="459" y2="3.05176e-05" stroke="#33B8A4" stroke-width="2"/>
<line x1="0.000610352" y1="45.001" x2="460" y2="45.001" stroke="#33B8A4" stroke-width="2"/>
<line x1="0.000610352" y1="90.9995" x2="460" y2="90.9995" stroke="#33B8A4" stroke-width="2"/>
<line x1="0.000610352" y1="137" x2="460" y2="137" stroke="#33B8A4" stroke-width="2"/>
<path d="M0.000610352 183.999H460" stroke="#33B8A4" stroke-width="2"/>
<line x1="0.000610352" y1="229" x2="460" y2="229" stroke="#33B8A4" stroke-width="2"/>
<line x1="0.000610352" y1="275.001" x2="460" y2="275.001" stroke="#33B8A4" stroke-width="2"/>
<line x1="0.000610352" y1="321" x2="460" y2="321" stroke="#33B8A4" stroke-width="2"/>
<line x1="0.000610352" y1="367" x2="460" y2="367" stroke="#33B8A4" stroke-width="2"/>
<line x1="0.000610352" y1="412.999" x2="460" y2="412.999" stroke="#33B8A4" stroke-width="2"/>
<line x1="0.000610352" y1="459" x2="460" y2="459" stroke="#33B8A4" stroke-width="2"/>
<line x1="44.9998" y1="920" x2="44.9998" y2="460" stroke="#33B8A4" stroke-width="2"/>
<line x1="90.9995" y1="920" x2="90.9995" y2="460" stroke="#33B8A4" stroke-width="2"/>
<line x1="136.999" y1="920" x2="136.999" y2="460" stroke="#33B8A4" stroke-width="2"/>
<line x1="183" y1="920" x2="183" y2="460" stroke="#33B8A4" stroke-width="2"/>
<line x1="228.999" y1="920" x2="228.999" y2="460" stroke="#33B8A4" stroke-width="2"/>
<line x1="275" y1="920" x2="275" y2="460" stroke="#33B8A4" stroke-width="2"/>
<line x1="321" y1="920" x2="321" y2="460" stroke="#33B8A4" stroke-width="2"/>
<line x1="366.999" y1="920" x2="366.999" y2="460" stroke="#33B8A4" stroke-width="2"/>
<line x1="413" y1="920" x2="413" y2="460" stroke="#33B8A4" stroke-width="2"/>
<line x1="458.999" y1="920" x2="458.999" y2="460" stroke="#33B8A4" stroke-width="2"/>
<line y1="505.001" x2="459.999" y2="505.001" stroke="#33B8A4" stroke-width="2"/>
<line y1="551" x2="459.999" y2="551" stroke="#33B8A4" stroke-width="2"/>
<line y1="597" x2="459.999" y2="597" stroke="#33B8A4" stroke-width="2"/>
<line x1="505" y1="460" x2="505" y2="3.05176e-05" stroke="#33B8A4" stroke-width="2"/>
<line x1="551" y1="460" x2="551" y2="3.05176e-05" stroke="#33B8A4" stroke-width="2"/>
<line x1="597" y1="460" x2="597" y2="3.05176e-05" stroke="#33B8A4" stroke-width="2"/>
<line x1="643" y1="460" x2="643" y2="3.05176e-05" stroke="#33B8A4" stroke-width="2"/>
<line x1="689" y1="460" x2="689" y2="3.05176e-05" stroke="#33B8A4" stroke-width="2"/>
<line x1="735" y1="460" x2="735" y2="3.05176e-05" stroke="#33B8A4" stroke-width="2"/>
<line x1="781" y1="460" x2="781" y2="3.05176e-05" stroke="#33B8A4" stroke-width="2"/>
<line x1="827" y1="460" x2="827" y2="3.05176e-05" stroke="#33B8A4" stroke-width="2"/>
<line x1="873" y1="460" x2="873" y2="3.05176e-05" stroke="#33B8A4" stroke-width="2"/>
<line x1="919" y1="460" x2="919" y2="3.05176e-05" stroke="#33B8A4" stroke-width="2"/>
<line x1="460.001" y1="45.001" x2="920" y2="45.001" stroke="#33B8A4" stroke-width="2"/>
<line x1="460.001" y1="90.9995" x2="920" y2="90.9995" stroke="#33B8A4" stroke-width="2"/>
<line x1="460.001" y1="137" x2="920" y2="137" stroke="#33B8A4" stroke-width="2"/>
<path d="M460.001 183.999H920" stroke="#33B8A4" stroke-width="2"/>
<line x1="460.001" y1="229" x2="920" y2="229" stroke="#33B8A4" stroke-width="2"/>
<line x1="460.001" y1="275.001" x2="920" y2="275.001" stroke="#33B8A4" stroke-width="2"/>
<line x1="460.001" y1="321" x2="920" y2="321" stroke="#33B8A4" stroke-width="2"/>
<line x1="460.001" y1="367" x2="920" y2="367" stroke="#33B8A4" stroke-width="2"/>
<line x1="460.001" y1="412.999" x2="920" y2="412.999" stroke="#33B8A4" stroke-width="2"/>
<line x1="460.001" y1="459" x2="920" y2="459" stroke="#33B8A4" stroke-width="2"/>
<line x1="505" y1="920" x2="505" y2="460" stroke="#33B8A4" stroke-width="2"/>
<line x1="551" y1="920" x2="551" y2="460" stroke="#33B8A4" stroke-width="2"/>
<line x1="596.999" y1="920" x2="596.999" y2="460" stroke="#33B8A4" stroke-width="2"/>
<line x1="643" y1="920" x2="643" y2="460" stroke="#33B8A4" stroke-width="2"/>
<line x1="688.999" y1="920" x2="688.999" y2="460" stroke="#33B8A4" stroke-width="2"/>
<line x1="735" y1="920" x2="735" y2="460" stroke="#33B8A4" stroke-width="2"/>
<line x1="780.999" y1="920" x2="780.999" y2="460" stroke="#33B8A4" stroke-width="2"/>
<line x1="826.999" y1="920" x2="826.999" y2="460" stroke="#33B8A4" stroke-width="2"/>
<line x1="872.999" y1="920" x2="872.999" y2="460" stroke="#33B8A4" stroke-width="2"/>
<line x1="918.999" y1="920" x2="918.999" y2="460" stroke="#33B8A4" stroke-width="2"/>
<line x1="460" y1="505.001" x2="919.999" y2="505.001" stroke="#33B8A4" stroke-width="2"/>
<line x1="460" y1="551" x2="919.999" y2="551" stroke="#33B8A4" stroke-width="2"/>
<line x1="460" y1="597" x2="919.999" y2="597" stroke="#33B8A4" stroke-width="2"/>
<rect width="1200" height="630" fill="url(#paint0_linear_429_3531)"/>
<g clip-path="url(#clip1_429_3531)">
<path d="M491.687 153.5C491.665 152.053 491.147 150.715 490.867 149.311C490.78 148.923 490.521 148.815 490.176 148.772C489.355 148.642 488.513 148.599 487.758 148.297C486.592 147.822 485.922 148.232 485.296 149.204C484.757 150.046 484.303 151.233 483.418 151.471C482.533 151.708 481.604 150.801 480.698 150.391C479.64 149.938 478.625 149.419 477.567 148.944C477.049 148.729 476.876 148.426 477.049 147.865C477.308 146.98 477.416 146.03 477.696 145.166C477.956 144.389 477.804 143.892 477.114 143.461C476.379 143.007 475.689 142.467 475.084 141.863C474.501 141.301 474.005 141.301 473.378 141.712C473.357 141.733 473.314 141.755 473.292 141.755C472.213 142.208 471.111 143.417 470.161 143.115C469.212 142.813 468.585 141.431 467.851 140.524C467.225 139.769 466.642 138.991 466.016 138.257C465.671 137.847 465.671 137.545 466.016 137.135C466.599 136.487 467.052 135.753 467.679 135.148C468.391 134.457 468.542 133.81 467.895 133.011C467.722 132.795 467.549 132.536 467.484 132.255C467.074 130.161 465.714 129.751 463.749 129.967C461.871 130.161 461.849 130.01 461.396 128.131C461.05 126.663 460.748 125.195 460.338 123.749C460.165 123.144 460.338 122.928 460.834 122.712C461.784 122.302 462.713 121.805 463.663 121.395C464.116 121.201 464.311 120.942 464.289 120.424C464.224 119.301 464.246 118.2 464.289 117.077C464.311 116.559 464.138 116.3 463.663 116.127C462.691 115.739 461.763 115.264 460.813 114.853C460.316 114.638 460.1 114.378 460.252 113.795C460.705 111.96 461.094 110.104 461.482 108.247C461.59 107.707 461.849 107.47 462.432 107.491C463.447 107.534 464.44 107.47 465.455 107.513C466.059 107.534 466.362 107.34 466.578 106.779C466.988 105.786 467.463 104.814 467.938 103.864C468.175 103.411 468.175 103.108 467.808 102.72C467.096 101.942 466.513 101.079 465.8 100.323C465.347 99.8482 465.39 99.5459 465.779 99.0709C466.988 97.6028 468.175 96.1131 469.341 94.6017C469.687 94.1483 469.989 94.0404 470.507 94.3427C471.414 94.8392 472.385 95.2495 473.292 95.746C473.745 95.9835 474.048 95.9619 474.436 95.6165C475.257 94.904 476.077 94.2131 476.962 93.6086C477.481 93.2416 477.545 92.8529 477.394 92.3132C477.135 91.3416 476.898 90.37 476.617 89.3985C476.466 88.8803 476.595 88.5349 477.135 88.2974C478.884 87.477 480.633 86.6349 482.36 85.7713C482.792 85.5554 483.159 85.5122 483.418 86.0088C483.44 86.0304 483.461 86.0736 483.483 86.0952C484.303 87.0451 484.8 88.5565 485.901 88.8803C486.937 89.1826 488.233 88.4701 489.442 88.2542C490.132 88.1463 490.5 87.8224 490.586 87.1099C490.737 86.1599 490.975 85.21 491.147 84.26C491.234 83.7418 491.449 83.4612 492.054 83.5043C492.982 83.5691 493.932 83.5475 494.861 83.5043C495.401 83.4828 495.616 83.6339 495.616 84.2168C495.595 87.9303 495.595 91.6223 495.616 95.3358C495.616 96.0483 495.249 96.0267 494.753 96.0483C484.886 96.4153 477.934 101.23 474.156 110.255C468.909 122.842 476.747 137.415 490.046 140.308C491.601 140.654 493.155 140.827 494.753 140.805C495.314 140.805 495.595 140.891 495.595 141.561C495.573 145.274 495.573 148.966 495.595 152.68C495.595 152.982 495.508 153.241 495.357 153.478C494.127 153.5 492.918 153.5 491.687 153.5Z" fill="#33B8A4"/>
<path d="M495.185 124.872C495.185 128.931 495.185 133.011 495.185 137.07C495.185 137.286 495.185 137.502 495.185 137.718C495.163 138.02 495.271 138.387 494.753 138.409C494.235 138.43 494.299 138.085 494.299 137.761C494.299 137.005 494.299 136.25 494.299 135.494C494.299 132.838 494.299 130.161 494.299 127.506C494.299 125.692 493.242 124.634 491.45 124.569C490.003 124.526 489.765 124.289 489.765 122.864C489.765 121.309 489.787 119.776 489.765 118.222C489.765 117.747 489.873 117.466 490.284 117.164C491.471 116.257 491.579 114.875 490.629 113.882C489.744 112.954 488.254 112.997 487.391 113.99C486.527 115.005 486.721 116.43 487.93 117.229C488.384 117.531 488.427 117.855 488.427 118.308C488.427 119.863 488.405 121.396 488.427 122.95C488.448 124.958 489.29 125.843 491.277 125.93C492.637 125.994 493.004 126.361 493.004 127.678C493.004 130.96 492.982 134.22 493.026 137.502C493.026 138.15 492.939 138.322 492.205 138.214C489.636 137.826 489.614 137.869 489.614 135.321C489.614 134.242 489.636 133.162 489.614 132.083C489.571 130.55 488.556 129.535 487.024 129.535C484.541 129.514 482.058 129.514 479.575 129.535C478.992 129.535 478.668 129.362 478.366 128.866C477.61 127.549 477.006 126.189 476.487 124.764C476.272 124.138 476.336 123.835 477.092 123.857C477.848 123.879 478.474 123.835 479.014 124.634C479.726 125.692 481.216 125.692 482.144 124.785C483.029 123.922 483.051 122.583 482.187 121.698C481.345 120.813 479.748 120.77 479.057 121.806C478.258 122.972 477.2 122.432 476.25 122.518C475.905 122.54 475.84 122.151 475.797 121.871C475.645 120.597 475.473 119.301 475.516 118.006C475.537 117.509 475.753 117.423 476.185 117.423C478.603 117.445 481 117.423 483.418 117.423C484.195 117.423 484.627 117.855 484.627 118.632C484.649 120.295 484.627 121.935 484.649 123.598C484.649 124.051 484.368 124.202 484.087 124.44C483.029 125.347 482.943 126.858 483.893 127.765C484.8 128.628 486.246 128.542 487.045 127.592C487.952 126.534 487.758 125.152 486.505 124.353C486.009 124.03 485.944 123.706 485.944 123.209C485.966 121.741 485.966 120.251 485.944 118.783C485.922 117.078 484.972 116.106 483.267 116.084C481.043 116.063 478.798 116.063 476.574 116.084C475.948 116.084 475.624 115.976 475.775 115.242C477.394 107.448 481.928 102.245 489.442 99.5679C490.456 99.2008 490.694 99.4815 490.586 100.453C490.521 101.101 490.543 101.748 490.586 102.396C490.629 103.368 490.607 104.188 489.614 104.857C488.621 105.527 488.772 107.06 489.658 107.902C490.543 108.744 491.903 108.701 492.745 107.815C493.565 106.93 493.609 105.462 492.637 104.75C491.968 104.253 491.86 103.735 491.881 103.022C491.903 101.9 491.903 100.799 491.881 99.6758C491.86 99.1576 492.032 98.9202 492.594 98.8554C495.185 98.5531 495.185 98.5315 495.185 101.166C495.185 103.864 495.163 106.563 495.206 109.262C495.206 109.91 495.055 110.126 494.364 110.126C491.817 110.082 489.247 110.104 486.7 110.126C486.268 110.126 486.009 109.996 485.728 109.629C484.821 108.42 483.504 108.29 482.49 109.24C481.518 110.169 481.518 111.594 482.511 112.457C483.504 113.321 484.994 113.148 485.771 111.961C486.095 111.464 486.441 111.399 486.916 111.399C489.355 111.421 491.817 111.443 494.256 111.378C495.033 111.356 495.206 111.615 495.206 112.349C495.163 116.538 495.185 120.705 495.185 124.872Z" fill="#33B8A4"/>
<path d="M530.852 113.126C533.982 113.126 537.113 113.126 540.244 113.126C540.74 113.126 541.172 113.148 541.582 112.694C542.1 112.112 542.813 112.112 543.396 112.716C543.914 113.256 543.914 113.925 543.482 114.486C542.986 115.113 542.251 115.134 541.668 114.638C541.215 114.249 540.783 114.249 540.287 114.249C533.702 114.249 527.117 114.249 520.553 114.292C519.733 114.292 519.409 114.119 519.171 113.277C516.667 104.317 510.773 98.9199 501.77 96.8256C500.539 96.545 499.287 96.4586 498.035 96.4802C497.365 96.5018 497.085 96.3507 497.085 95.595C497.128 91.9894 497.106 88.4054 497.085 84.7999C497.085 84.2385 497.171 83.9578 497.84 83.9794C505.85 84.2601 513.299 86.1816 519.582 91.4497C521.59 93.1337 523.144 95.1848 524.353 97.5165C524.591 97.9915 524.85 98.4017 525.389 98.6824C526.059 99.0063 526.231 99.654 525.908 100.345C525.584 101.036 524.958 101.252 524.267 101.014C523.576 100.777 523.187 100.129 523.468 99.4597C523.77 98.7472 523.468 98.2938 523.187 97.754C520.078 92.1621 515.156 88.9236 509.175 87.0452C505.958 86.0305 502.676 85.318 499.287 85.0805C498.466 85.0158 498.078 85.1885 498.164 86.1169C498.229 86.9373 498.229 87.7793 498.164 88.5997C498.121 89.3338 498.38 89.5281 499.114 89.6361C505.051 90.4565 510.686 92.0974 515.458 95.9404C518.848 98.6608 521.503 101.964 523.187 106.002C523.554 106.887 524.008 107.146 524.914 107.103C526.966 107.038 529.017 107.081 531.068 107.081C531.867 107.081 532.665 107.167 533.399 106.584C533.939 106.153 534.587 106.455 534.997 106.995C535.429 107.556 535.343 108.161 534.868 108.657C534.328 109.197 533.615 109.283 533.14 108.743C532.622 108.182 532.039 108.182 531.392 108.182C528.801 108.182 526.21 108.139 523.619 108.182C523.015 108.182 522.755 107.966 522.54 107.426C519.193 99.1142 513.018 94.0405 504.425 91.8815C502.676 91.4497 500.928 90.8667 499.092 90.7588C498.294 90.7156 498.164 90.9315 498.186 91.6008C498.207 92.4212 498.272 93.2632 498.164 94.0837C498.035 95.1416 498.553 95.3575 499.438 95.4007C501.791 95.487 504.058 96.0484 506.217 96.9336C513.191 99.8051 517.79 104.857 519.992 112.068C520.251 112.889 520.575 113.169 521.46 113.148C524.591 113.083 527.721 113.126 530.852 113.126Z" fill="#33B8A4"/>
<path d="M527.592 118.308C529.578 118.308 531.543 118.308 533.529 118.308C534.328 118.308 535.127 118.373 535.861 117.812C536.422 117.401 537.134 117.574 537.545 118.2C537.933 118.762 537.869 119.409 537.372 119.884C536.854 120.381 536.141 120.51 535.623 119.992C535.062 119.452 534.436 119.388 533.745 119.388C529.751 119.388 525.756 119.409 521.762 119.366C521.007 119.366 520.877 119.69 520.834 120.316C520.294 129.686 513.687 138.02 504.62 140.805C502.72 141.388 500.798 141.798 498.812 141.82C498.315 141.82 498.099 141.95 498.121 142.489C498.142 143.634 498.142 144.799 498.121 145.944C498.121 146.505 498.402 146.591 498.877 146.527C500.258 146.311 501.618 146.052 502.979 145.728C504.965 145.231 506.951 144.821 508.83 144.001C515.436 141.129 520.143 136.422 522.82 129.686C523.446 128.132 523.921 126.534 524.504 124.98C524.72 124.418 524.958 124.289 525.497 124.31C526.404 124.353 527.289 124.31 528.196 124.289C528.909 124.289 529.556 124.332 530.139 123.706C530.614 123.188 531.348 123.339 531.866 123.9C532.341 124.418 532.363 125.023 531.91 125.563C531.435 126.102 530.83 126.275 530.182 125.865C528.779 124.98 527.246 125.541 525.8 125.498C525.346 125.476 525.303 126.297 525.173 126.75C523.813 131.198 521.784 135.257 518.567 138.646C514.724 142.727 510.039 145.339 504.555 146.613C502.633 147.045 500.733 147.606 498.747 147.693C498.186 147.714 498.121 148.038 498.121 148.47C498.142 149.441 498.164 150.413 498.099 151.384C498.056 152.075 498.315 152.248 498.963 152.205C501.726 152.054 504.447 151.622 507.124 150.888C511.205 149.765 515.091 148.275 518.394 145.512C520.553 143.72 522.259 141.561 523.597 139.1C523.792 138.733 523.856 138.409 523.684 137.999C523.381 137.264 523.641 136.595 524.375 136.293C525.087 136.012 525.756 136.228 526.08 136.962C526.404 137.696 526.123 138.301 525.433 138.668C525.13 138.819 524.914 138.992 524.742 139.294C521.417 145.857 515.782 149.463 508.959 151.514C505.375 152.572 501.726 153.328 497.97 153.284C497.192 153.284 497.02 153.069 497.02 152.313C497.041 148.75 497.041 145.188 496.998 141.626C496.998 140.956 497.149 140.719 497.883 140.697C508.571 140.481 517.379 133.098 519.43 122.648C519.668 121.482 519.819 120.316 519.711 119.129C519.646 118.481 519.862 118.265 520.532 118.265C522.906 118.33 525.26 118.308 527.592 118.308Z" fill="#33B8A4"/>
<path d="M503.885 119.215C505.397 119.215 506.908 119.236 508.419 119.193C509.024 119.171 509.197 119.409 509.132 119.949C508.873 122.216 508.463 124.439 507.577 126.555C507.448 126.879 507.34 127.117 506.8 126.922C504.49 126.102 502.115 125.454 499.611 125.584C498.963 125.627 498.574 125.346 498.596 124.569C498.661 123.014 498.639 121.482 498.596 119.927C498.574 119.366 498.769 119.171 499.33 119.193C500.863 119.236 502.374 119.215 503.885 119.215Z" fill="#33B8A4"/>
<path d="M503.842 117.616C502.331 117.616 500.82 117.595 499.33 117.616C498.833 117.616 498.639 117.487 498.639 116.947C498.661 115.22 498.661 113.514 498.639 111.787C498.639 111.29 498.877 111.139 499.287 111.226C501.748 111.765 504.166 111.226 506.541 110.729C507.405 110.535 507.577 110.859 507.815 111.485C508.506 113.277 508.786 115.177 509.089 117.055C509.175 117.616 508.83 117.616 508.441 117.595C506.93 117.616 505.375 117.616 503.842 117.616Z" fill="#33B8A4"/>
<path d="M516.365 119.495C516.192 123.208 514.897 126.447 512.781 129.405C512.457 129.836 512.176 129.966 511.68 129.534C511.075 128.994 510.341 128.606 509.628 128.217C509.132 127.958 508.981 127.764 509.218 127.181C510.06 125.065 510.73 122.928 510.751 120.596C510.751 119.754 510.989 119.063 512.155 119.192C513.364 119.322 514.594 119.214 515.803 119.236C516.041 119.214 516.386 119.084 516.365 119.495Z" fill="#33B8A4"/>
<path d="M513.709 117.552C512.781 117.552 511.615 117.897 510.989 117.466C510.341 117.012 510.708 115.738 510.535 114.853C510.255 113.45 509.909 112.068 509.413 110.751C509.197 110.19 509.218 109.952 509.801 109.715C510.794 109.304 511.744 108.808 512.673 108.29C513.105 108.031 513.256 108.139 513.493 108.527C515.177 111.161 516.106 114.054 516.408 117.142C516.451 117.617 516.235 117.681 515.868 117.66C515.156 117.638 514.422 117.66 513.709 117.66C513.709 117.595 513.709 117.573 513.709 117.552Z" fill="#33B8A4"/>
<path d="M498.639 136.466C498.639 133.443 498.639 130.593 498.639 127.722C498.639 127.268 498.855 127.16 499.244 127.203C501.575 127.398 503.885 127.7 506.109 128.52C506.39 128.628 506.627 128.736 506.39 129.125C504.49 132.255 502.029 134.717 498.639 136.466Z" fill="#33B8A4"/>
<path d="M506.606 108.894C504.339 109.563 502.05 109.715 499.74 109.628C499.049 109.607 498.574 109.391 498.596 108.484C498.661 106.044 498.618 103.626 498.618 101.014C502.223 102.849 504.749 105.504 506.606 108.894Z" fill="#33B8A4"/>
<path d="M488.254 137.155C484.821 135.838 482.101 133.787 479.704 130.829C481.432 130.829 482.943 130.829 484.454 130.829C485.275 130.829 486.117 130.808 486.937 130.829C487.65 130.851 488.233 131.175 488.254 131.974C488.276 133.658 488.254 135.32 488.254 137.155Z" fill="#33B8A4"/>
<path d="M501.295 100.388C504.533 101.079 507.34 102.288 509.715 104.382C510.406 104.987 511.226 105.462 511.701 106.304C511.917 106.671 511.852 106.8 511.528 106.93C511.421 106.973 511.334 107.016 511.248 107.06C510.384 107.47 509.499 108.247 508.657 108.204C507.729 108.139 507.556 106.8 506.995 106.045C505.613 104.21 504.145 102.482 502.223 101.165C501.942 100.971 501.683 100.712 501.295 100.388Z" fill="#33B8A4"/>
<path d="M502.612 136.163C504.749 134.306 506.52 132.233 507.923 129.815C508.117 129.47 508.333 129.491 508.635 129.643C508.894 129.794 509.132 129.923 509.369 130.074C511.593 131.521 511.528 131.089 509.585 132.773C507.577 134.479 505.267 135.666 502.612 136.163Z" fill="#33B8A4"/>
<path d="M555.897 101.472H573.177V104.82H566.193V127.5H562.701V104.82H555.897V101.472ZM597.515 101.472V127.5H594.059V116.088H580.415V127.5H576.923V101.472H580.415V112.776H594.059V101.472H597.515ZM603.213 101.472H606.705V127.5H603.213V101.472ZM634.917 128.328L614.793 107.916L615.801 108.168L615.873 127.5H612.381V100.68H612.561L632.469 121.164L631.641 120.984L631.569 101.472H635.025V128.328H634.917ZM661.086 125.268C660.726 125.58 660.222 125.892 659.574 126.204C658.926 126.492 658.206 126.756 657.414 126.996C656.646 127.236 655.842 127.428 655.002 127.572C654.186 127.716 653.418 127.788 652.698 127.788C650.61 127.788 648.726 127.464 647.046 126.816C645.39 126.168 643.962 125.268 642.762 124.116C641.586 122.964 640.674 121.608 640.026 120.048C639.402 118.488 639.09 116.796 639.09 114.972C639.09 112.812 639.438 110.88 640.134 109.176C640.854 107.448 641.826 105.996 643.05 104.82C644.298 103.62 645.726 102.72 647.334 102.12C648.942 101.496 650.646 101.184 652.446 101.184C653.958 101.184 655.362 101.364 656.658 101.724C657.954 102.084 659.094 102.54 660.078 103.092L658.89 106.296C658.41 106.008 657.81 105.744 657.09 105.504C656.394 105.264 655.674 105.072 654.93 104.928C654.186 104.76 653.49 104.676 652.842 104.676C651.306 104.676 649.914 104.916 648.666 105.396C647.418 105.852 646.35 106.524 645.462 107.412C644.574 108.276 643.89 109.332 643.41 110.58C642.93 111.804 642.69 113.184 642.69 114.72C642.69 116.136 642.93 117.432 643.41 118.608C643.89 119.784 644.574 120.804 645.462 121.668C646.35 122.508 647.406 123.168 648.63 123.648C649.878 124.104 651.246 124.332 652.734 124.332C653.622 124.332 654.498 124.248 655.362 124.08C656.226 123.888 656.97 123.624 657.594 123.288V118.104H652.41V114.756H661.086V125.268ZM662.588 101.616H666.62L673.676 121.488L673.064 121.236L678.212 107.916L679.832 112.632L672.956 128.688L662.588 101.616ZM675.08 101.616H678.572L686.204 121.2L685.484 121.056L692.216 101.616H695.924L685.7 128.652L675.08 101.616ZM699.337 101.472H716.257V104.82H702.829V112.74H714.817V116.088H702.829V124.152H716.761V127.5H699.337V101.472ZM727.717 101.472C730.333 101.472 732.385 102.012 733.873 103.092C735.385 104.148 736.141 105.804 736.141 108.06C736.141 109.428 735.829 110.616 735.205 111.624C734.581 112.632 733.705 113.424 732.577 114C731.473 114.576 730.165 114.9 728.653 114.972L728.149 113.172C729.901 113.22 731.473 113.532 732.865 114.108C734.257 114.684 735.361 115.488 736.177 116.52C736.993 117.552 737.401 118.776 737.401 120.192C737.401 121.488 737.161 122.604 736.681 123.54C736.201 124.452 735.553 125.208 734.737 125.808C733.921 126.384 732.997 126.816 731.965 127.104C730.933 127.368 729.865 127.5 728.761 127.5H721.021V101.472H727.717ZM728.437 112.884C729.877 112.884 730.921 112.488 731.569 111.696C732.217 110.88 732.541 109.896 732.541 108.744C732.541 107.376 732.121 106.38 731.281 105.756C730.441 105.132 729.313 104.82 727.897 104.82H724.513V112.884H728.437ZM728.581 124.26C729.541 124.26 730.417 124.116 731.209 123.828C732.025 123.54 732.661 123.096 733.117 122.496C733.597 121.896 733.837 121.14 733.837 120.228C733.837 119.22 733.561 118.428 733.009 117.852C732.481 117.276 731.797 116.868 730.957 116.628C730.117 116.364 729.253 116.232 728.365 116.232H724.513V124.26H728.581Z" fill="white"/>
</g>
<g filter="url(#filter0_d_429_3531)">
<path d="M248.961 219.5H235.161V207.5H275.961V219.5H262.161V291.5H248.961V219.5ZM284.752 207.5H297.952V241.7H312.112V207.5H325.312V291.5H312.112V253.7H297.952V291.5H284.752V207.5ZM337.543 207.5H373.543V219.5H350.743V241.7H368.863V253.7H350.743V279.5H373.543V291.5H337.543V207.5ZM332.94 351.5H353.1C359.66 351.5 364.58 353.26 367.86 356.78C371.14 360.3 372.78 365.46 372.78 372.26V414.74C372.78 421.54 371.14 426.7 367.86 430.22C364.58 433.74 359.66 435.5 353.1 435.5H332.94V351.5ZM352.86 423.5C355.02 423.5 356.66 422.86 357.78 421.58C358.98 420.3 359.58 418.22 359.58 415.34V371.66C359.58 368.78 358.98 366.7 357.78 365.42C356.66 364.14 355.02 363.5 352.86 363.5H346.14V423.5H352.86ZM384.09 351.5H420.09V363.5H397.29V385.7H415.41V397.7H397.29V423.5H420.09V435.5H384.09V351.5ZM426.603 351.5H439.923L448.563 416.66H448.803L457.443 351.5H469.563L456.843 435.5H439.323L426.603 351.5ZM478.304 351.5H514.304V363.5H491.504V385.7H509.624V397.7H491.504V423.5H514.304V435.5H478.304V351.5ZM524.297 351.5H537.497V423.5H559.217V435.5H524.297V351.5ZM586.559 436.7C580.079 436.7 575.119 434.86 571.679 431.18C568.239 427.5 566.519 422.3 566.519 415.58V371.42C566.519 364.7 568.239 359.5 571.679 355.82C575.119 352.14 580.079 350.3 586.559 350.3C593.039 350.3 597.999 352.14 601.439 355.82C604.879 359.5 606.599 364.7 606.599 371.42V415.58C606.599 422.3 604.879 427.5 601.439 431.18C597.999 434.86 593.039 436.7 586.559 436.7ZM586.559 424.7C591.119 424.7 593.399 421.94 593.399 416.42V370.58C593.399 365.06 591.119 362.3 586.559 362.3C581.999 362.3 579.719 365.06 579.719 370.58V416.42C579.719 421.94 581.999 424.7 586.559 424.7ZM617.925 351.5H637.365C643.925 351.5 648.845 353.26 652.125 356.78C655.405 360.3 657.045 365.46 657.045 372.26V380.54C657.045 387.34 655.405 392.5 652.125 396.02C648.845 399.54 643.925 401.3 637.365 401.3H631.125V435.5H617.925V351.5ZM637.365 389.3C639.525 389.3 641.125 388.7 642.165 387.5C643.285 386.3 643.845 384.26 643.845 381.38V371.42C643.845 368.54 643.285 366.5 642.165 365.3C641.125 364.1 639.525 363.5 637.365 363.5H631.125V389.3H637.365ZM666.615 351.5H685.455L693.855 411.62H694.095L702.495 351.5H721.335V435.5H708.855V371.9H708.615L699.015 435.5H687.975L678.375 371.9H678.135V435.5H666.615V351.5ZM733.585 351.5H769.585V363.5H746.785V385.7H764.905V397.7H746.785V423.5H769.585V435.5H733.585V351.5ZM779.579 351.5H796.139L808.979 401.78H809.219V351.5H820.979V435.5H807.419L791.579 374.18H791.339V435.5H779.579V351.5ZM843.51 363.5H829.71V351.5H870.51V363.5H856.71V435.5H843.51V363.5Z" fill="#FFFFFE"/>
<path d="M405.155 207.5H440.075V219.5H418.355V242.9H435.395V254.9H418.355V291.5H405.155V207.5ZM468.005 292.7C461.605 292.7 456.725 290.9 453.365 287.3C450.005 283.62 448.325 278.38 448.325 271.58V207.5H461.525V272.54C461.525 275.42 462.085 277.5 463.205 278.78C464.405 280.06 466.085 280.7 468.245 280.7C470.405 280.7 472.045 280.06 473.165 278.78C474.365 277.5 474.965 275.42 474.965 272.54V207.5H487.685V271.58C487.685 278.38 486.005 283.62 482.645 287.3C479.285 290.9 474.405 292.7 468.005 292.7ZM509.806 219.5H496.006V207.5H536.806V219.5H523.006V291.5H509.806V219.5ZM564.797 292.7C558.397 292.7 553.517 290.9 550.157 287.3C546.797 283.62 545.117 278.38 545.117 271.58V207.5H558.317V272.54C558.317 275.42 558.877 277.5 559.997 278.78C561.197 280.06 562.877 280.7 565.037 280.7C567.197 280.7 568.837 280.06 569.957 278.78C571.157 277.5 571.757 275.42 571.757 272.54V207.5H584.477V271.58C584.477 278.38 582.797 283.62 579.437 287.3C576.077 290.9 571.197 292.7 564.797 292.7ZM596.279 207.5H615.839C622.639 207.5 627.599 209.1 630.719 212.3C633.839 215.42 635.399 220.26 635.399 226.82V231.98C635.399 240.7 632.519 246.22 626.759 248.54V248.78C629.959 249.74 632.199 251.7 633.479 254.66C634.839 257.62 635.519 261.58 635.519 266.54V281.3C635.519 283.7 635.599 285.66 635.759 287.18C635.919 288.62 636.319 290.06 636.959 291.5H623.519C623.039 290.14 622.719 288.86 622.559 287.66C622.399 286.46 622.319 284.3 622.319 281.18V265.82C622.319 261.98 621.679 259.3 620.399 257.78C619.199 256.26 617.079 255.5 614.039 255.5H609.479V291.5H596.279V207.5ZM614.279 243.5C616.919 243.5 618.879 242.82 620.159 241.46C621.519 240.1 622.199 237.82 622.199 234.62V228.14C622.199 225.1 621.639 222.9 620.519 221.54C619.479 220.18 617.799 219.5 615.479 219.5H609.479V243.5H614.279ZM647.077 207.5H683.077V219.5H660.277V241.7H678.397V253.7H660.277V279.5H683.077V291.5H647.077V207.5ZM733.77 292.7C727.29 292.7 722.33 290.86 718.89 287.18C715.45 283.5 713.73 278.3 713.73 271.58V227.42C713.73 220.7 715.45 215.5 718.89 211.82C722.33 208.14 727.29 206.3 733.77 206.3C740.25 206.3 745.21 208.14 748.65 211.82C752.09 215.5 753.81 220.7 753.81 227.42V271.58C753.81 278.3 752.09 283.5 748.65 287.18C745.21 290.86 740.25 292.7 733.77 292.7ZM733.77 280.7C738.33 280.7 740.61 277.94 740.61 272.42V226.58C740.61 221.06 738.33 218.3 733.77 218.3C729.21 218.3 726.93 221.06 726.93 226.58V272.42C726.93 277.94 729.21 280.7 733.77 280.7ZM765.136 207.5H800.056V219.5H778.336V242.9H795.376V254.9H778.336V291.5H765.136V207.5ZM830.405 207.5H843.605V291.5H830.405V207.5ZM874.971 292.7C868.491 292.7 863.531 290.86 860.091 287.18C856.651 283.5 854.931 278.3 854.931 271.58V227.42C854.931 220.7 856.651 215.5 860.091 211.82C863.531 208.14 868.491 206.3 874.971 206.3C881.451 206.3 886.411 208.14 889.851 211.82C893.291 215.5 895.011 220.7 895.011 227.42V271.58C895.011 278.3 893.291 283.5 889.851 287.18C886.411 290.86 881.451 292.7 874.971 292.7ZM874.971 280.7C879.531 280.7 881.811 277.94 881.811 272.42V226.58C881.811 221.06 879.531 218.3 874.971 218.3C870.411 218.3 868.131 221.06 868.131 226.58V272.42C868.131 277.94 870.411 280.7 874.971 280.7ZM916.189 219.5H902.389V207.5H943.189V219.5H929.389V291.5H916.189V219.5Z" fill="#33B8A4"/>
</g>
<g clip-path="url(#clip2_429_3531)">
<g filter="url(#filter1_d_429_3531)">
<path d="M367.5 508.141C367.5 507.231 366.769 506.5 365.859 506.5C364.95 506.5 364.219 507.231 364.219 508.141V510.875C361.806 510.875 359.844 512.837 359.844 515.25H357.109C356.2 515.25 355.469 515.981 355.469 516.891C355.469 517.8 356.2 518.531 357.109 518.531H359.844V522.359H357.109C356.2 522.359 355.469 523.091 355.469 524C355.469 524.909 356.2 525.641 357.109 525.641H359.844V529.469H357.109C356.2 529.469 355.469 530.2 355.469 531.109C355.469 532.019 356.2 532.75 357.109 532.75H359.844C359.844 535.163 361.806 537.125 364.219 537.125V539.859C364.219 540.769 364.95 541.5 365.859 541.5C366.769 541.5 367.5 540.769 367.5 539.859V537.125H371.328V539.859C371.328 540.769 372.06 541.5 372.969 541.5C373.878 541.5 374.609 540.769 374.609 539.859V537.125H378.438V539.859C378.438 540.769 379.169 541.5 380.078 541.5C380.987 541.5 381.719 540.769 381.719 539.859V537.125C384.132 537.125 386.094 535.163 386.094 532.75H388.828C389.737 532.75 390.469 532.019 390.469 531.109C390.469 530.2 389.737 529.469 388.828 529.469H386.094V525.641H388.828C389.737 525.641 390.469 524.909 390.469 524C390.469 523.091 389.737 522.359 388.828 522.359H386.094V518.531H388.828C389.737 518.531 390.469 517.8 390.469 516.891C390.469 515.981 389.737 515.25 388.828 515.25H386.094C386.094 512.837 384.132 510.875 381.719 510.875V508.141C381.719 507.231 380.987 506.5 380.078 506.5C379.169 506.5 378.438 507.231 378.438 508.141V510.875H374.609V508.141C374.609 507.231 373.878 506.5 372.969 506.5C372.06 506.5 371.328 507.231 371.328 508.141V510.875H367.5V508.141ZM366.406 515.25H379.531C380.741 515.25 381.719 516.228 381.719 517.438V530.562C381.719 531.772 380.741 532.75 379.531 532.75H366.406C365.196 532.75 364.219 531.772 364.219 530.562V517.438C364.219 516.228 365.196 515.25 366.406 515.25ZM379.531 517.438H366.406V530.562H379.531V517.438Z" fill="#33B8A4"/>
</g>
<line x1="400.469" y1="523.5" x2="500.469" y2="523.5" stroke="#33B8A4"/>
<g filter="url(#filter2_d_429_3531)">
<path d="M514.844 508.688C512.431 508.688 510.469 510.649 510.469 513.062V517.438C510.469 519.851 512.431 521.812 514.844 521.812H541.094C543.507 521.812 545.469 519.851 545.469 517.438V513.062C545.469 510.649 543.507 508.688 541.094 508.688H514.844ZM533.984 513.609C534.419 513.609 534.837 513.782 535.144 514.09C535.452 514.398 535.625 514.815 535.625 515.25C535.625 515.685 535.452 516.102 535.144 516.41C534.837 516.718 534.419 516.891 533.984 516.891C533.549 516.891 533.132 516.718 532.824 516.41C532.517 516.102 532.344 515.685 532.344 515.25C532.344 514.815 532.517 514.398 532.824 514.09C533.132 513.782 533.549 513.609 533.984 513.609ZM537.266 515.25C537.266 514.815 537.438 514.398 537.746 514.09C538.054 513.782 538.471 513.609 538.906 513.609C539.341 513.609 539.759 513.782 540.066 514.09C540.374 514.398 540.547 514.815 540.547 515.25C540.547 515.685 540.374 516.102 540.066 516.41C539.759 516.718 539.341 516.891 538.906 516.891C538.471 516.891 538.054 516.718 537.746 516.41C537.438 516.102 537.266 515.685 537.266 515.25ZM514.844 526.188C512.431 526.188 510.469 528.149 510.469 530.562V534.938C510.469 537.351 512.431 539.312 514.844 539.312H541.094C543.507 539.312 545.469 537.351 545.469 534.938V530.562C545.469 528.149 543.507 526.188 541.094 526.188H514.844ZM533.984 531.109C534.419 531.109 534.837 531.282 535.144 531.59C535.452 531.898 535.625 532.315 535.625 532.75C535.625 533.185 535.452 533.602 535.144 533.91C534.837 534.218 534.419 534.391 533.984 534.391C533.549 534.391 533.132 534.218 532.824 533.91C532.517 533.602 532.344 533.185 532.344 532.75C532.344 532.315 532.517 531.898 532.824 531.59C533.132 531.282 533.549 531.109 533.984 531.109ZM537.812 532.75C537.812 532.315 537.985 531.898 538.293 531.59C538.601 531.282 539.018 531.109 539.453 531.109C539.888 531.109 540.306 531.282 540.613 531.59C540.921 531.898 541.094 532.315 541.094 532.75C541.094 533.185 540.921 533.602 540.613 533.91C540.306 534.218 539.888 534.391 539.453 534.391C539.018 534.391 538.601 534.218 538.293 533.91C537.985 533.602 537.812 533.185 537.812 532.75Z" fill="#33B8A4"/>
</g>
<line x1="555.469" y1="523.5" x2="655.469" y2="523.5" stroke="url(#paint1_linear_429_3531)"/>
<g filter="url(#filter3_d_429_3531)">
<path d="M665.469 528.375C665.469 532.723 668.996 536.25 673.344 536.25H693.469C697.335 536.25 700.469 533.116 700.469 529.25C700.469 525.865 698.062 523.038 694.869 522.392C695.093 521.807 695.219 521.167 695.219 520.5C695.219 517.602 692.867 515.25 689.969 515.25C688.891 515.25 687.885 515.578 687.054 516.136C685.539 513.511 682.712 511.75 679.469 511.75C674.634 511.75 670.719 515.666 670.719 520.5C670.719 520.648 670.724 520.795 670.73 520.943C667.667 522.02 665.469 524.941 665.469 528.375Z" fill="#D65CAB"/>
</g>
<line x1="710.469" y1="523.5" x2="810.469" y2="523.5" stroke="#D65CAB"/>
<g filter="url(#filter4_d_429_3531)">
<path d="M824.844 506.5C822.431 506.5 820.469 508.462 820.469 510.875V537.125C820.469 539.538 822.431 541.5 824.844 541.5H840.156C842.569 541.5 844.531 539.538 844.531 537.125V510.875C844.531 508.462 842.569 506.5 840.156 506.5H824.844ZM830.312 536.031H834.688C835.289 536.031 835.781 536.523 835.781 537.125C835.781 537.727 835.289 538.219 834.688 538.219H830.312C829.711 538.219 829.219 537.727 829.219 537.125C829.219 536.523 829.711 536.031 830.312 536.031Z" fill="#D65CAB"/>
</g>
</g>
</g>
<defs>
<filter id="filter0_d_429_3531" x="233.161" y="204.3" width="716.028" height="238.4" filterUnits="userSpaceOnUse" color-interpolation-filters="sRGB">
<feFlood flood-opacity="0" result="BackgroundImageFix"/>
<feColorMatrix in="SourceAlpha" type="matrix" values="0 0 0 0 0 0 0 0 0 0 0 0 0 0 0 0 0 0 127 0" result="hardAlpha"/>
<feOffset dx="2" dy="2"/>
<feGaussianBlur stdDeviation="2"/>
<feComposite in2="hardAlpha" operator="out"/>
<feColorMatrix type="matrix" values="0 0 0 0 0.633398 0 0 0 0 0.633398 0 0 0 0 0.633398 0 0 0 0.15 0"/>
<feBlend mode="normal" in2="BackgroundImageFix" result="effect1_dropShadow_429_3531"/>
<feBlend mode="normal" in="SourceGraphic" in2="effect1_dropShadow_429_3531" result="shape"/>
</filter>
<filter id="filter1_d_429_3531" x="353.469" y="504.5" width="43" height="43" filterUnits="userSpaceOnUse" color-interpolation-filters="sRGB">
<feFlood flood-opacity="0" result="BackgroundImageFix"/>
<feColorMatrix in="SourceAlpha" type="matrix" values="0 0 0 0 0 0 0 0 0 0 0 0 0 0 0 0 0 0 127 0" result="hardAlpha"/>
<feOffset dx="2" dy="2"/>
<feGaussianBlur stdDeviation="2"/>
<feComposite in2="hardAlpha" operator="out"/>
<feColorMatrix type="matrix" values="0 0 0 0 0.633398 0 0 0 0 0.633398 0 0 0 0 0.633398 0 0 0 0.15 0"/>
<feBlend mode="normal" in2="BackgroundImageFix" result="effect1_dropShadow_429_3531"/>
<feBlend mode="normal" in="SourceGraphic" in2="effect1_dropShadow_429_3531" result="shape"/>
</filter>
<filter id="filter2_d_429_3531" x="508.469" y="506.688" width="43" height="38.625" filterUnits="userSpaceOnUse" color-interpolation-filters="sRGB">
<feFlood flood-opacity="0" result="BackgroundImageFix"/>
<feColorMatrix in="SourceAlpha" type="matrix" values="0 0 0 0 0 0 0 0 0 0 0 0 0 0 0 0 0 0 127 0" result="hardAlpha"/>
<feOffset dx="2" dy="2"/>
<feGaussianBlur stdDeviation="2"/>
<feComposite in2="hardAlpha" operator="out"/>
<feColorMatrix type="matrix" values="0 0 0 0 0.633398 0 0 0 0 0.633398 0 0 0 0 0.633398 0 0 0 0.15 0"/>
<feBlend mode="normal" in2="BackgroundImageFix" result="effect1_dropShadow_429_3531"/>
<feBlend mode="normal" in="SourceGraphic" in2="effect1_dropShadow_429_3531" result="shape"/>
</filter>
<filter id="filter3_d_429_3531" x="663.469" y="509.75" width="43" height="32.5" filterUnits="userSpaceOnUse" color-interpolation-filters="sRGB">
<feFlood flood-opacity="0" result="BackgroundImageFix"/>
<feColorMatrix in="SourceAlpha" type="matrix" values="0 0 0 0 0 0 0 0 0 0 0 0 0 0 0 0 0 0 127 0" result="hardAlpha"/>
<feOffset dx="2" dy="2"/>
<feGaussianBlur stdDeviation="2"/>
<feComposite in2="hardAlpha" operator="out"/>
<feColorMatrix type="matrix" values="0 0 0 0 0.633398 0 0 0 0 0.633398 0 0 0 0 0.633398 0 0 0 0.15 0"/>
<feBlend mode="normal" in2="BackgroundImageFix" result="effect1_dropShadow_429_3531"/>
<feBlend mode="normal" in="SourceGraphic" in2="effect1_dropShadow_429_3531" result="shape"/>
</filter>
<filter id="filter4_d_429_3531" x="818.469" y="504.5" width="32.0625" height="43" filterUnits="userSpaceOnUse" color-interpolation-filters="sRGB">
<feFlood flood-opacity="0" result="BackgroundImageFix"/>
<feColorMatrix in="SourceAlpha" type="matrix" values="0 0 0 0 0 0 0 0 0 0 0 0 0 0 0 0 0 0 127 0" result="hardAlpha"/>
<feOffset dx="2" dy="2"/>
<feGaussianBlur stdDeviation="2"/>
<feComposite in2="hardAlpha" operator="out"/>
<feColorMatrix type="matrix" values="0 0 0 0 0.633398 0 0 0 0 0.633398 0 0 0 0 0.633398 0 0 0 0.15 0"/>
<feBlend mode="normal" in2="BackgroundImageFix" result="effect1_dropShadow_429_3531"/>
<feBlend mode="normal" in="SourceGraphic" in2="effect1_dropShadow_429_3531" result="shape"/>
</filter>
<linearGradient id="paint0_linear_429_3531" x1="1.78814e-05" y1="630" x2="1200" y2="-2.95895e-05" gradientUnits="userSpaceOnUse">
<stop stop-color="#141414" stop-opacity="0"/>
<stop offset="0.2" stop-color="#141414" stop-opacity="0.75"/>
<stop offset="0.6" stop-color="#141414"/>
</linearGradient>
<linearGradient id="paint1_linear_429_3531" x1="555.469" y1="524.5" x2="655.469" y2="524.5" gradientUnits="userSpaceOnUse">
<stop stop-color="#33B8A4"/>
<stop offset="1" stop-color="#D65CAB"/>
</linearGradient>
<clipPath id="clip0_429_3531">
<rect width="1200" height="630" fill="white"/>
</clipPath>
<clipPath id="clip1_429_3531">
<rect width="279.592" height="70" fill="white" transform="translate(460.204 83.5)"/>
</clipPath>
<clipPath id="clip2_429_3531">
<rect width="499.062" height="45" fill="white" transform="translate(350.469 501.5)"/>
</clipPath>
</defs>
</svg>
